<svg version="1.1" xmlns="http://www.w3.org/2000/svg" viewBox="0 0 263.6 263.6">
	<circle fill="#FFF" cx="131.8" cy="131.8" r="127.6"/>
	<path fill="#CD5055" d="M165.2,99.7c-0.1-0.1-0.3-0.3-0.4-0.4c-18.3-17.8-47.7-17.4-65.5,0.9c-8.6,8.9-13.3,20.6-13.1,32.9
		c0.2,12.4,5.1,23.9,14,32.6l32.3,32.3l33.2-33.2l0,0c8.6-8.9,13.3-20.6,13.1-32.9C178.6,119.6,173.7,108.3,165.2,99.7z"/>
	<path fill="#CD5055" d="M259.4,130.1C258.4,59.7,200.6,3.3,130.1,4.3C59.7,5.2,3.3,63.1,4.3,133.5c0.9,70.4,58.8,126.8,129.2,125.9
		C203.9,258.4,260.3,200.6,259.4,130.1z M192.4,188.9l-60,60l-57.6-57.6l0,0c-0.2-0.2-0.4-0.4-0.6-0.6
		c-15.3-15.3-23.8-35.5-24.1-57.1c-0.3-22,8-42.8,23.3-58.5c31.7-32.5,83.9-33.2,116.4-1.5c0.3,0.3,0.5,0.5,0.8,0.8
		c15.3,15.3,23.8,35.5,24.1,57.1C215,152.8,207,173.2,192.4,188.9L192.4,188.9z"/>
</svg>
