<svg version="1.1" xmlns="http://www.w3.org/2000/svg" viewBox="0 0 263.6 263.6">
	<circle fill="#FFF" cx="131.8" cy="131.8" r="127.6"/>
	<path fill="#0F5A96" d="M258.9,121.1l-67,67c-0.2,0.2-0.5,0.5-0.7,0.7c-15.3,15.3-35.5,23.8-57.1,24.1c-22,0.3-42.8-8-58.5-23.3
		c-15.8-15.3-24.6-35.9-24.9-57.9c-0.3-22,8-42.8,23.3-58.5c0.3-0.3,0.5-0.5,0.8-0.8c15.3-15.3,35.5-23.8,57.1-24.1
		c22-0.3,42.8,8,58.5,23.3l13.1,12.7l-59.6,59.6l-25.5-25.5l31.1-31.1c-5.4-2.1-11.2-3.1-17.2-3c-12.2,0.2-23.5,5-32.1,13.5
		c-0.1,0.1-0.3,0.3-0.4,0.4c-8.6,8.9-13.3,20.6-13.1,32.9c0.2,12.4,5.1,23.9,14,32.6c8.9,8.6,20.6,13.3,32.9,13.1
		c12.4-0.2,23.9-5.2,32.6-14l0.2-0.2l82.3-82.3C228.6,35,182.9,3.6,130.1,4.3C59.7,5.2,3.3,63.1,4.3,133.5
		c0.9,70.4,58.8,126.8,129.2,125.9c70.4-0.9,126.8-58.8,125.9-129.2C259.3,127.1,259.2,124.1,258.9,121.1z"/>
</svg>
