<svg version="1.1" xmlns="http://www.w3.org/2000/svg" viewBox="0 0 263.6 263.6">
		<circle fill="#FFF" cx="131.8" cy="131.8" r="127.6"/>
		<path fill="#E19B19" d="M132.1,85.5L132.1,85.5c-25.5,0.3-46,21.4-45.7,46.9l0,0.2V251c14.6,5.6,30.5,8.5,47.1,8.3
			c16.1-0.2,31.4-3.4,45.5-9V85.5H132.1z"/>
		<path fill="#E19B19" d="M259.4,130.1C258.4,59.7,200.6,3.3,130.1,4.3C59.7,5.2,3.3,63.1,4.3,133.5c0.5,38.9,18.4,73.4,46.1,96.5
			v-97.2c-0.5-45.3,35.9-82.7,81.2-83.3l83.4,0v179C242.6,204.8,259.9,169.4,259.4,130.1z"/>
</svg>
