<svg version="1.1" xmlns="http://www.w3.org/2000/svg" viewBox="0 0 263.6 263.6">
	<circle fill="#FFF" cx="131.8" cy="131.8" r="127.6"/>
	<path fill="#F5D20F" d="M4.3,133.5c0.9,70.4,58.8,126.8,129.2,125.9c70.4-0.9,126.8-58.8,125.9-129.2
		C258.4,59.7,200.6,3.3,130.1,4.3c-1.6,0-3.1,0.1-4.7,0.2c-4.5,0.9-8.9,3.2-12.1,6.6c-4.2,4.3-6.5,10.1-6.4,16.1
		c0.1,6.1,2.5,11.7,6.9,16c4.3,4.2,10.1,6.5,16.1,6.4c0,0,0,0,0,0c0.4,0,0.7,0,1.1,0c21.6,0,41.9,8.3,57.4,23.3
		c15.8,15.3,24.6,35.9,24.9,57.9c0.6,44.9-35.1,82-79.8,83.3v0.1h-3.3c-44.8,0-81.3-36.4-81.5-81.2h0c0,0,0-0.1,0-0.1
		c0,0,0-0.1,0-0.1h0c-0.2-21.9,8.1-42.6,23.3-58.3c3.8-3.9,7.9-7.3,12.2-10.3c-8.4-10.3-13.1-23-13.3-36.5c0-2.5,0.1-5.6,0.4-8.1
		C30.9,41.3,3.6,84.3,4.3,133.5z"/>
	<path fill="#F5D20F" d="M131,178.1L131,178.1c25.6,0,46.3-20.7,46.3-46.3S156.5,85.5,131,85.5h0c-25.6,0-46.3,20.7-46.3,46.3
		S105.4,178.1,131,178.1z"/>
</svg>
