<svg version="1.1" xmlns="http://www.w3.org/2000/svg" viewBox="0 0 263.6 263.6">
	<circle fill="#FFF" cx="131.8" cy="131.8" r="127.6"/>
	<path fill="#64AF96" d="M258.9,121L131.8,248.2L4.7,121.1c-0.3,4.1-0.5,8.2-0.4,12.4c0.9,70.4,58.8,126.8,129.2,125.9
		c70.4-0.9,126.8-58.8,125.9-129.2C259.3,127.1,259.2,124,258.9,121z"/>
	<path fill="#64AF96" d="M165,164.1c17.8-18.3,17.4-47.6-0.9-65.5c-8.9-8.6-20.6-13.3-32.9-13.1c-12.4,0.2-23.9,5.1-32.6,14
		c-17.8,18.3-17.4,47.6,0.8,65.4l32.4,32.4L165,164.1z"/>
	<path fill="#64AF96" d="M72.8,74.4c15.3-15.8,35.9-24.6,57.9-24.9c22-0.3,42.8,8,58.5,23.3c12.6,12.2,20.4,27.6,23.4,43.6l36-36.1
		C228.6,35,182.9,3.6,130.1,4.3C78.5,4.9,34.5,36.2,15,80.5l36,36C53.9,101.1,61.1,86.4,72.8,74.4z"/>
</svg>
