<svg version="1.1" xmlns="http://www.w3.org/2000/svg" viewBox="0 0 263.6 263.6" >
	<circle fill="#FFF" cx="131.8" cy="131.8" r="127.6"/>
	<path fill="#502D2D" d="M190.9,129.8c-8.9-8.7-23.1-8.5-31.9,0.2c-0.1,0.1-0.1,0.1-0.2,0.2l-0.2,0.2l-28.2,28.2
		c-0.2,0.2-0.3,0.3-0.5,0.5c-10.9,10.9-25.3,17-40.7,17.2c-15.7,0.2-30.5-5.7-41.7-16.6c-23.2-22.6-23.7-59.8-1.1-83l0.2-0.2
		L118.1,5C89.6,8.1,62,20.7,40.4,42.8C-8.7,93.3-7.7,174,42.8,223.2c16.1,15.7,35.3,26.2,55.5,31.7l93.1-93.1
		C200.1,152.9,199.9,138.5,190.9,129.8z"/>
	<path fill="#502D2D" d="M72.7,133.8c8.9,8.7,23.1,8.5,31.9-0.2c0.1-0.1,0.1-0.1,0.2-0.2l0.2-0.2l28.2-28.2c0.2-0.2,0.3-0.3,0.5-0.5
		c22.6-22.6,59.4-22.9,82.4-0.5c23.2,22.6,23.7,59.8,1.1,83l-0.1,0.1l-71.5,71.5c28.5-3.1,56.1-15.7,77.7-37.8
		c49.2-50.5,48.1-131.2-2.4-180.4c-16.1-15.7-35.3-26.2-55.5-31.7l-93.1,93.1C63.5,110.8,63.7,125.1,72.7,133.8z"/>
	<polygon fill="#502D2D" points="165.3,8.7 165.3,8.7 165.3,8.7"/>
	<path fill="#502D2D" d="M118.1,5L118.1,5C118.1,5,118.1,5,118.1,5C118.1,5,118.1,5,118.1,5z"/>
</svg>
